<svg width="40" height="40" viewBox="0 0 40 40" fill="none" xmlns="http://www.w3.org/2000/svg">
<path d="M21.5898 19.3599L26.5182 14.4316L10.5998 5.48492C9.54484 4.91492 8.5565 4.83492 7.68984 5.45825L21.5898 19.3599ZM27.3582 25.1299L32.4815 22.2483C33.4815 21.6883 34.0298 20.8949 34.0298 20.0149C34.0298 19.1366 33.4815 18.3416 32.4832 17.7816L27.8448 15.1766L22.6232 20.3966L27.3582 25.1299ZM6.83317 6.66992C6.7265 6.99825 6.6665 7.36492 6.6665 7.76658V32.2749C6.6665 32.9099 6.8065 33.4566 7.05984 33.8916L20.5548 20.3949L6.83317 6.66992ZM21.5898 21.4283L8.16984 34.8499C8.4265 34.9483 8.70317 34.9999 8.99484 34.9999C9.51484 34.9999 10.0565 34.8466 10.6082 34.5399L26.0332 25.8783L21.5898 21.4283Z" fill="white"/>
</svg>
